<?xml version="1.0" encoding="UTF-8"?>
<svg id="_Слой_1" data-name="Слой_1" xmlns="http://www.w3.org/2000/svg" version="1.1" viewBox="0 0 148.95 182.44">
  <defs>
    <style>
      .st0 { fill: white; }
      .st1 { fill: white; }
    </style>
  </defs>
  <path class="st1" d="M24.44,33.99c0-1.56-.46-2.83-1.39-3.81-.93-.98-2.09-1.86-3.48-2.62-1.39-.76-2.91-1.48-4.54-2.14-1.63-.67-3.15-1.48-4.54-2.42-1.39-.95-2.55-2.12-3.48-3.51-.93-1.39-1.39-3.17-1.39-5.32,0-3.05,1.06-5.46,3.18-7.24,2.12-1.78,5.12-2.67,9.02-2.67,2.26,0,4.33.17,6.18.5,1.86.34,3.3.76,4.35,1.28l-1.39,4.12c-.85-.42-2.11-.82-3.76-1.21-1.65-.38-3.52-.58-5.6-.58-2.45,0-4.29.55-5.52,1.64-1.22,1.1-1.84,2.39-1.84,3.87s.46,2.66,1.39,3.62c.93.96,2.09,1.83,3.48,2.59,1.39.76,2.91,1.51,4.54,2.26,1.63.74,3.15,1.61,4.54,2.59,1.39.98,2.55,2.16,3.48,3.54.93,1.38,1.39,3.08,1.39,5.12,0,1.67-.3,3.18-.89,4.51-.59,1.34-1.47,2.49-2.62,3.46-1.15.97-2.54,1.71-4.18,2.23-1.64.52-3.49.78-5.57.78-2.79,0-5.09-.21-6.91-.64-1.82-.43-3.23-.9-4.23-1.42l1.56-4.12c.85.47,2.12.93,3.79,1.38,1.67.45,3.55.68,5.63.68,1.23,0,2.38-.12,3.45-.36,1.08-.24,2.01-.63,2.79-1.17.78-.54,1.4-1.22,1.87-2.03.46-.82.7-1.78.7-2.9"/>
  <rect class="st1" x="61.63" y="4.91" width="4.62" height="38.99"/>
  <path class="st1" d="M33.03,49.86c1.41-.26,3.04-.46,4.87-.61,1.84-.15,3.52-.22,5.04-.22,1.71,0,3.33.19,4.87.56,1.54.37,2.9.98,4.07,1.84,1.17.86,2.11,1.97,2.81,3.34s1.06,3.05,1.06,5.01c0,3.04-.84,5.51-2.51,7.41-1.67,1.89-2.76,2.86-5.32,3.49l10.86,17.79h-5.4l-10.27-16.82h-5.46s0,16.82,0,16.82h-4.62v-38.61ZM43.05,53.04h-1.5c-.52,0-1.02.02-1.5.06-.48.04-.94.08-1.37.11-.43.04-.77.09-1.03.17v14.37h4.34c2.56,0,4.68-.63,6.35-1.89,1.67-1.26,2.51-3.23,2.51-5.9,0-2.01-.69-3.66-2.06-4.96-1.37-1.3-3.29-1.95-5.74-1.95"/>
  <path class="st1" d="M93.74,49.86c1.41-.33,2.93-.56,4.57-.67,1.63-.11,3.25-.17,4.85-.17,1.71,0,3.44.17,5.21.5,1.76.33,3.37.95,4.82,1.84,1.45.89,2.63,2.12,3.54,3.68.91,1.56,1.36,3.55,1.36,5.96s-.43,4.38-1.28,6.02c-.86,1.64-1.99,2.96-3.4,3.98-1.41,1.02-3.03,1.75-4.85,2.2-1.82.45-3.7.67-5.63.67h-.92c-.43,0-.87,0-1.34-.03-.46-.02-.92-.05-1.37-.08-.45-.04-.76-.07-.95-.11v14.82h-4.62v-38.61ZM103.27,53.04c-.97,0-1.89.02-2.79.06-.89.04-1.6.13-2.12.28v16.16c.19.08.48.12.89.14.41.02.84.04,1.28.06.45.02.87.03,1.28.03h.89c1.26,0,2.52-.12,3.76-.36,1.24-.24,2.37-.68,3.37-1.31,1-.63,1.81-1.52,2.42-2.67.61-1.15.92-2.62.92-4.4,0-1.52-.29-2.79-.86-3.81-.58-1.02-1.34-1.84-2.28-2.45-.95-.61-2.01-1.05-3.2-1.31-1.19-.26-2.37-.39-3.56-.39"/>
  <path class="st1" d="M24.44,123.12c0-1.56-.46-2.83-1.39-3.82-.93-.98-2.09-1.86-3.48-2.62-1.39-.76-2.91-1.48-4.54-2.15-1.63-.67-3.15-1.47-4.54-2.42-1.39-.95-2.55-2.12-3.48-3.51-.93-1.39-1.39-3.17-1.39-5.32,0-3.04,1.06-5.46,3.18-7.24,2.12-1.78,5.12-2.67,9.02-2.67,2.26,0,4.33.17,6.18.5,1.86.33,3.3.76,4.35,1.28l-1.39,4.12c-.85-.42-2.11-.82-3.76-1.21-1.65-.38-3.52-.58-5.6-.58-2.45,0-4.29.55-5.52,1.64-1.22,1.1-1.84,2.39-1.84,3.87s.46,2.66,1.39,3.62c.93.97,2.09,1.83,3.48,2.59,1.39.76,2.91,1.51,4.54,2.26,1.63.74,3.15,1.61,4.54,2.59,1.39.98,2.55,2.16,3.48,3.54.93,1.38,1.39,3.08,1.39,5.12,0,1.67-.3,3.18-.89,4.51-.59,1.34-1.47,2.49-2.62,3.45-1.15.97-2.54,1.71-4.18,2.23-1.64.52-3.49.78-5.57.78-2.79,0-5.09-.21-6.91-.64-1.82-.43-3.23-.9-4.23-1.42l1.56-4.12c.85.47,2.12.93,3.79,1.38,1.67.45,3.55.68,5.63.68,1.23,0,2.38-.12,3.45-.36,1.08-.24,2.01-.63,2.79-1.17.78-.54,1.4-1.22,1.87-2.03.46-.82.7-1.78.7-2.9"/>
  <polygon class="st1" points="33.03 94.04 54.74 94.04 54.74 98.16 37.65 98.16 37.65 110.92 52.86 110.92 52.86 115.04 37.65 115.04 37.65 128.91 55.98 128.91 55.98 133.03 33.03 133.03 33.03 94.04"/>
  <polygon class="st1" points="37.85 159.55 37.65 159.55 37.65 177.6 33.03 177.6 33.03 138.6 37.65 138.6 37.65 155.98 37.74 155.98 53.25 138.6 58.6 138.6 41.66 157.13 59.84 177.6 54.47 177.6 37.85 159.55"/>
  <path class="st1" d="M133.09,138.6h4.62v30.42c0,2.97-.66,5.24-1.98,6.8-1.32,1.56-3.31,2.34-5.99,2.34-.3,0-.67-.02-1.11-.06-.45-.04-.89-.09-1.34-.17-.45-.08-.88-.17-1.31-.28-.43-.11-.77-.24-1.03-.39l.89-3.9c1.04.45,2.17.67,3.4.67,1.56,0,2.59-.55,3.09-1.64.5-1.09.75-2.59.75-4.48v-29.3Z"/>
  <path class="st1" d="M101.7,93.43h-2.12l-14.76,39.61h4.62l3.88-10.81h14.3l3.99,10.81h4.9l-14.82-39.61ZM94.82,118.22l5.71-15.69,5.71,15.69h-11.42Z"/>
  <path class="st1" d="M132.22,48.86h-2.12l-14.76,39.61h4.62l3.88-10.81h14.3l3.99,10.81h4.9l-14.82-39.61ZM125.34,73.65l5.71-15.69,5.71,15.69h-11.42Z"/>
  <path class="st1" d="M33.03,5.3c1.41-.26,3.04-.46,4.87-.61,1.84-.15,3.52-.22,5.04-.22,1.71,0,3.33.19,4.87.56,1.54.37,2.9.98,4.07,1.84,1.17.85,2.11,1.97,2.81,3.34s1.06,3.04,1.06,5.01c0,3.05-.84,5.52-2.51,7.41-1.67,1.89-2.76,2.86-5.32,3.49l10.86,17.79h-5.4l-10.27-16.82h-5.46s0,16.82,0,16.82h-4.62V5.3ZM43.05,8.47h-1.5c-.52,0-1.02.02-1.5.06-.48.04-.94.08-1.37.11-.43.04-.77.09-1.03.17v14.37h4.34c2.56,0,4.68-.63,6.35-1.89,1.67-1.26,2.51-3.23,2.51-5.91,0-2-.69-3.66-2.06-4.96-1.37-1.3-3.29-1.95-5.74-1.95"/>
  <polygon class="st1" points="116.31 138.6 116.31 164.01 116.31 167.55 95.09 137.99 92.64 137.99 92.64 177.6 96.98 177.6 96.98 148.4 118.21 178.21 120.66 178.21 120.66 138.6 116.31 138.6"/>
  <path class="st0" d="M87.13,48.87h-4.62v24.95c0,1.89.04,3.53-.27,4.87-.31,1.36-.79,2.43-1.45,3.22-.61.86-1.48,1.47-2.59,1.84-.73.3-1.55.49-2.47.56-.31.06-.61.1-.92.1h-.19c-1.16-.06-2.2-.25-3.12-.56-1.16-.37-2.14-.95-2.93-1.75-.81-.86-1.39-1.96-1.74-3.32-.37-1.34-.56-3-.56-4.96v-24.95h-4.6v27.15c0,4.17,1.16,7.29,3.49,9.37,1.16,1.05,2.61,1.82,4.33,2.3.36.13.78.23,1.28.29-4.23,1.53-7.11,3.62-8.65,6.25-2.15,3.24-2.21,7.35-.19,12.33l12.59,30.6,12.16-30.6c1.95-4.97,1.89-9.08-.19-12.33-1.47-2.58-4.25-4.63-8.36-6.15.49-.13.97-.26,1.45-.39,1.6-.48,2.95-1.28,4.04-2.37,1.16-1.11,2.03-2.49,2.59-4.14.61-1.71.92-3.74.92-6.08v-26.23M82.69,96.53c1.23,2.21,1.17,5-.17,8.36l-8.02,20.76-8.45-20.76c-1.4-3.36-1.46-6.14-.17-8.36,1.41-2.28,4.19-3.96,8.36-5.06,4.17,1.1,6.98,2.79,8.45,5.06"/>
  <path class="st1" d="M83.56,138.6h-1.05v24.73c0,2,.08,3.83-.31,5.19-.19.65-.29,1.04-.57,1.57-.33.53-.67,1-.98,1.41-.05.07-.11.13-.16.19-.77.79-1.71,1.37-2.84,1.73-1.09.35-1.93.53-3.29.55-1.37-.02-2.21-.21-3.3-.55-1.13-.36-2.07-.94-2.84-1.73-.05-.06-.11-.13-.16-.19-.16-.21-.35-.43-.54-.67-.48-.7-.68-1.14-.96-2.11-.39-1.36-.31-3.28-.31-5.38v-24.73h-4.6v26.91c0,4.23,1.17,7.39,3.51,9.47,1.81,1.61,3.71,2.59,6.6,2.95.7.11,1.45.16,2.33.16.09,0,.17,0,.26,0,.09,0,.17,0,.26,0,.88,0,1.62-.06,2.33-.16,2.89-.37,4.8-1.35,6.6-2.95,2.34-2.08,3.51-5.24,3.51-9.47v-26.91h-3.49Z"/>
</svg>
